<?xml version="1.0" standalone="no"?>
<!DOCTYPE svg PUBLIC "-//W3C//DTD SVG 20010904//EN"
 "http://www.w3.org/TR/2001/REC-SVG-20010904/DTD/svg10.dtd">
<svg version="1.0" xmlns="http://www.w3.org/2000/svg"
 width="200.000000pt" height="200.000000pt" viewBox="0 0 200.000000 200.000000"
 preserveAspectRatio="xMidYMid meet">
<metadata>
Created by potrace 1.16, written by Peter Selinger 2001-2019
</metadata>
<g transform="translate(0.000000,200.000000) scale(0.100000,-0.100000)"
fill="#000000" stroke="none">
<path d="M936 1850 c-125 -83 -205 -111 -336 -117 -120 -6 -197 8 -323 59 -46
18 -82 27 -87 22 -5 -5 -19 -63 -30 -129 -27 -150 -30 -372 -6 -525 62 -403
309 -745 747 -1033 47 -31 94 -57 103 -57 10 0 59 26 110 58 266 168 464 380
593 637 96 191 136 345 149 575 8 160 -19 441 -46 473 -3 4 -37 -4 -76 -19
-127 -48 -203 -64 -298 -64 -162 0 -264 32 -372 114 -34 25 -63 46 -65 46 -2
0 -31 -18 -63 -40z m167 -109 c104 -55 164 -76 255 -90 76 -12 194 0 288 29
112 34 110 36 124 -79 31 -237 -13 -558 -99 -741 -112 -237 -383 -517 -672
-695 -8 -6 -202 130 -294 205 -100 83 -236 224 -284 297 -167 248 -230 520
-202 873 7 85 16 158 19 162 4 4 63 -4 132 -18 215 -44 339 -29 535 66 44 21
86 39 93 39 7 1 55 -21 105 -48z"/>
<path d="M900 1658 c-168 -79 -324 -99 -499 -64 -52 10 -88 13 -94 7 -13 -13
-12 -374 2 -451 38 -214 144 -419 300 -583 84 -89 355 -300 385 -300 25 0 193
131 301 235 247 237 345 419 391 721 15 98 17 358 2 372 -3 3 -34 -1 -69 -8
-194 -44 -348 -24 -528 68 -48 25 -92 45 -97 44 -5 0 -47 -19 -94 -41z m41
-158 c4 -107 2 -753 -2 -756 -3 -2 -48 51 -100 118 l-94 122 -3 -97 c-1 -53
-6 -97 -11 -97 -7 0 -15 8 -88 93 l-33 38 0 189 0 190 33 0 c30 0 36 -6 97
-107 l65 -108 6 215 c3 118 6 215 7 215 1 0 29 0 62 0 46 0 60 -3 61 -15z
m345 7 c3 -3 5 -220 5 -484 l-1 -478 -58 -51 c-31 -29 -60 -50 -64 -47 -5 2
-8 44 -8 94 l0 89 -49 0 -48 0 -38 -142 c-21 -79 -41 -147 -45 -152 -7 -7 -92
43 -103 62 -3 4 14 70 38 147 24 77 64 210 90 295 26 85 55 182 65 215 11 33
32 103 48 155 16 52 44 144 63 203 l33 108 34 -4 c18 -3 36 -7 38 -10z m-638
-81 c3 -92 -5 -107 -44 -77 -33 26 -92 28 -101 5 -3 -10 -1 -64 6 -121 25
-214 115 -401 271 -560 l70 -72 0 -81 c0 -59 -3 -80 -13 -80 -21 0 -261 250
-302 315 -121 192 -184 455 -176 733 1 23 1 23 144 20 l142 -3 3 -79z m972
-10 c0 -52 -4 -97 -9 -101 -5 -3 -18 6 -29 20 -16 20 -29 25 -66 25 l-46 0 0
-60 0 -60 40 0 40 0 0 -60 0 -60 -45 0 -45 0 0 -86 c0 -95 7 -99 51 -28 33 54
45 44 41 -33 -2 -54 -10 -83 -37 -138 -39 -79 -146 -223 -160 -215 -10 5 -17
852 -8 877 4 10 39 13 139 13 l134 0 0 -94z"/>
</g>
</svg>
